<?xml version="1.0" standalone="no"?>
<!DOCTYPE svg PUBLIC "-//W3C//DTD SVG 20010904//EN"
 "http://www.w3.org/TR/2001/REC-SVG-20010904/DTD/svg10.dtd">
<svg version="1.0" xmlns="http://www.w3.org/2000/svg"
 width="200.000000pt" height="200.000000pt" viewBox="0 0 200.000000 200.000000"
 preserveAspectRatio="xMidYMid meet">

<g transform="translate(0.000000,200.000000) scale(0.100000,-0.100000)"
fill="#000000" stroke="none">
<path d="M190 1315 l0 -184 123 -3 122 -3 5 -95 c8 -137 16 -147 128 -152 l53
-3 56 -135 c30 -74 64 -159 76 -187 l20 -53 133 0 c74 0 134 2 134 4 0 2 -29
75 -66 162 -36 88 -81 198 -101 247 l-35 87 35 88 c20 48 65 159 101 246 36
88 66 161 66 163 0 1 -60 3 -134 3 l-134 0 -15 -42 c-9 -24 -36 -92 -62 -153
-26 -60 -52 -126 -59 -145 l-13 -35 -91 -3 -92 -3 0 191 0 190 -125 0 -125 0
0 -185z"/>
<path d="M1070 1000 l0 -500 375 0 376 0 -3 123 -3 122 -247 3 -248 2 0 375 0
375 -125 0 -125 0 0 -500z"/>
<path d="M190 712 l0 -212 125 0 125 0 0 184 0 184 -99 4 c-89 3 -102 6 -125
27 l-26 24 0 -211z"/>
</g>
</svg>
